<?xml version="1.0" encoding="utf-8" standalone="no"?><!DOCTYPE svg PUBLIC "-//W3C//DTD SVG 20010904//EN" "http://www.w3.org/TR/2001/REC-SVG-20010904/DTD/svg10.dtd"><svg xmlns="http://www.w3.org/2000/svg" width="1098" height="970" xmlns:xlink="http://www.w3.org/1999/xlink"><source><![CDATA[Title: Sequence Diagram for Jenkins
Engine->IArtifactProvider: getItems
Note OVER Engine,IArtifactProvider: PARALLIZATION\n RETRYING\n PARTIAL DOWNLOAD\n INCREMENTAL DOWNLOAD\n CANCELLATION\n LOGGING\n
IArtifactProvider-->WebProvider: getItems
Note OVER WebProvider,Artifact Source(Jenkins): Handle Authentication
WebProvider-->Artifact Source(Jenkins): rest call
Artifact Source(Jenkins)-->WebProvider: list of files
participant Artifact Source(Teamcity) as teamcity
Note OVER WebProvider,Artifact Source(Jenkins): Apply handelbar \n transformation template
WebProvider->IArtifactProvider: artifact items
IArtifactProvider->Engine: artifact items
Note OVER Engine,IArtifactProvider: Iterate over items
IArtifactProvider-->WebProvider: getItem
WebProvider-->Artifact Source(Jenkins): get file
Artifact Source(Jenkins)-->WebProvider: file stream
WebProvider-->IArtifactProvider: file stream
IArtifactProvider->Engine: file stream write to disk]]></source><desc>Sequence Diagram for Jenkins</desc><defs><marker viewBox="0 0 5 5" markerWidth="5" markerHeight="5" orient="auto" refX="5" refY="2.5" id="markerArrowBlock"><path d="M 0 0 L 5 2.5 L 0 5 z"></path></marker><marker viewBox="0 0 9.6 16" markerWidth="4" markerHeight="16" orient="auto" refX="9.6" refY="8" id="markerArrowOpen"><path d="M 9.6,8 1.92,16 0,13.7 5.76,8 0,2.286 1.92,0 9.6,8 z"></path></marker></defs><g class="title"><path d="M10,10C75.2,20.9 215.2,-0.9 281.6,10.0C282.9,37.3 280.3,17.5 281.6,42.5C82.4,31.6 238.2,53.4 10.0,42.5C8.7,32.1 11.3,17.8 10.0,10.0" stroke="#000000" fill="#ffffff" style="stroke-width: 2;"></path><text x="15.03125" y="29" style="font-size: 16px; font-family: danielbd;"><tspan x="15">Sequence Diagram for Jenkins</tspan></text></g><g class="actor"><path d="M10,52.5C27.6,49.6 42.1,55.4 83.1,52.5C84.8,59.3 81.4,88.2 83.1,95.0C45.0,92.1 41.2,97.9 10.0,95.0C11.7,59.3 8.3,68.0 10.0,52.5" stroke="#000000" fill="#ffffff" style="stroke-width: 2;"></path><text x="20" y="76.5" style="font-size: 16px; font-family: danielbd;"><tspan x="20">Engine</tspan></text></g><g class="actor"><path d="M10,907.6875C65.6,904.8 27.6,910.6 83.1,907.7C81.4,917.9 84.8,914.5 83.1,950.2C21.7,953.1 62.7,947.3 10.0,950.2C11.7,929.8 8.3,918.7 10.0,907.7" stroke="#000000" fill="#ffffff" style="stroke-width: 2;"></path><text x="20" y="931.6875" style="font-size: 16px; font-family: danielbd;"><tspan x="20">Engine</tspan></text></g><path d="M46.6,95.0C79.1,294.9 14.1,657.6 46.6,907.7" stroke="#000000" fill="none" style="stroke-width: 2;"></path><g class="actor"><path d="M232.0390625,52.5C301.4,59.3 373.2,45.7 402.5,52.5C404.2,62.7 400.8,84.8 402.5,95.0C286.7,88.2 293.4,101.8 232.0,95.0C233.7,74.4 230.3,63.5 232.0,52.5" stroke="#000000" fill="#ffffff" style="stroke-width: 2;"></path><text x="242.0390625" y="76.5" style="font-size: 16px; font-family: danielbd;"><tspan x="242.0390625">IArtifactProvider</tspan></text></g><g class="actor"><path d="M232.0390625,907.6875C375.2,914.5 310.1,900.9 402.5,907.7C400.8,914.5 404.2,943.4 402.5,950.2C307.4,957.0 312.4,943.4 232.0,950.2C233.7,931.6 230.3,923.4 232.0,907.7" stroke="#000000" fill="#ffffff" style="stroke-width: 2;"></path><text x="242.0390625" y="931.6875" style="font-size: 16px; font-family: danielbd;"><tspan x="242.0390625">IArtifactProvider</tspan></text></g><path d="M317.3,95.0C349.8,735.4 284.7,433.4 317.3,907.7" stroke="#000000" fill="none" style="stroke-width: 2;"></path><g class="actor"><path d="M422.4609375,52.5C442.9,57.6 453.1,47.4 550.0,52.5C548.3,63.6 551.7,80.1 550.0,95.0C529.6,100.1 489.4,89.9 422.5,95.0C424.2,60.7 420.8,87.1 422.5,52.5" stroke="#000000" fill="#ffffff" style="stroke-width: 2;"></path><text x="432.4609375" y="76.5" style="font-size: 16px; font-family: danielbd;"><tspan x="432.4609375">WebProvider</tspan></text></g><g class="actor"><path d="M422.4609375,907.6875C488.9,912.8 461.2,902.6 550.0,907.7C551.7,920.9 548.3,926.0 550.0,950.2C465.9,955.3 442.9,945.1 422.5,950.2C420.8,928.1 424.2,938.7 422.5,907.7" stroke="#000000" fill="#ffffff" style="stroke-width: 2;"></path><text x="432.4609375" y="931.6875" style="font-size: 16px; font-family: danielbd;"><tspan x="432.4609375">WebProvider</tspan></text></g><path d="M486.2,95.0C518.7,712.6 453.7,296.9 486.2,907.7" stroke="#000000" fill="none" style="stroke-width: 2;"></path><g class="actor"><path d="M575,52.5C617.3,43.3 699.2,61.7 803.9,52.5C805.6,59.3 802.2,81.7 803.9,95.0C731.3,85.8 685.9,104.2 575.0,95.0C573.3,71.1 576.7,84.8 575.0,52.5" stroke="#000000" fill="#ffffff" style="stroke-width: 2;"></path><text x="585" y="76.5" style="font-size: 16px; font-family: danielbd;"><tspan x="585">Artifact Source(Jenkins)</tspan></text></g><g class="actor"><path d="M575,907.6875C693.2,898.5 631.7,916.8 803.9,907.7C805.6,940.0 802.2,934.3 803.9,950.2C749.0,959.3 694.9,941.0 575.0,950.2C576.7,914.5 573.3,938.4 575.0,907.7" stroke="#000000" fill="#ffffff" style="stroke-width: 2;"></path><text x="585" y="931.6875" style="font-size: 16px; font-family: danielbd;"><tspan x="585">Artifact Source(Jenkins)</tspan></text></g><path d="M689.5,95.0C722.0,626.1 657.0,712.6 689.5,907.7" stroke="#000000" fill="none" style="stroke-width: 2;"></path><g class="actor"><path d="M823.921875,52.5C1009.7,62.3 965.6,42.7 1068.4,52.5C1066.7,85.9 1070.1,82.6 1068.4,95.0C905.6,85.2 907.7,104.8 823.9,95.0C825.6,59.3 822.2,67.4 823.9,52.5" stroke="#000000" fill="#ffffff" style="stroke-width: 2;"></path><text x="833.921875" y="76.5" style="font-size: 16px; font-family: danielbd;"><tspan x="833.921875">Artifact Source(Teamcity)</tspan></text></g><g class="actor"><path d="M823.921875,907.6875C911.5,917.5 1000.7,897.9 1068.4,907.7C1066.7,943.4 1070.1,931.7 1068.4,950.2C892.9,940.4 963.9,960.0 823.9,950.2C822.2,940.0 825.6,937.5 823.9,907.7" stroke="#000000" fill="#ffffff" style="stroke-width: 2;"></path><text x="833.921875" y="931.6875" style="font-size: 16px; font-family: danielbd;"><tspan x="833.921875">Artifact Source(Teamcity)</tspan></text></g><path d="M946.2,95.0C913.7,225.0 978.7,777.7 946.2,907.7" stroke="#000000" fill="none" style="stroke-width: 2;"></path><g class="signal"><text x="148.84375" y="122.75" style="font-size: 16px; font-family: danielbd;"><tspan x="144.78125">getItems</tspan></text><path d="M46.6,137.5C273.9,126.7 101.2,148.3 317.3,137.5" stroke="#000000" fill="none" style="stroke-width: 2; marker-end: url(&quot;#markerArrowBlock&quot;);"></path></g><g class="note"><path d="M36.5625,157.5C139.0,169.1 202.6,145.9 327.3,157.5C322.1,219.8 332.4,263.1 327.3,286.0C83.1,274.4 212.7,297.6 36.6,286.0C41.7,188.3 31.4,187.0 36.6,157.5" stroke="#000000" fill="#ffffff" style="stroke-width: 2;"></path><text x="41.5625" y="176.5" style="font-size: 16px; font-family: danielbd;"><tspan x="41.5625">PARALLIZATION</tspan><tspan dy="1.2em" x="41.5625">RETRYING</tspan><tspan dy="1.2em" x="41.5625">PARTIAL DOWNLOAD</tspan><tspan dy="1.2em" x="41.5625">INCREMENTAL DOWNLOAD</tspan><tspan dy="1.2em" x="41.5625">CANCELLATION</tspan><tspan dy="1.2em" x="41.5625">LOGGING</tspan><tspan dy="1.2em" x="41.5625"></tspan></text></g><g class="signal"><text x="368.66796875" y="313.75" style="font-size: 16px; font-family: danielbd;"><tspan x="364.60546875">getItems</tspan></text><path d="M317.3,328.5C344.3,335.3 388.2,321.7 486.2,328.5" stroke="#000000" fill="none" style="stroke-width: 2; stroke-dasharray: 6, 2; marker-end: url(&quot;#markerArrowBlock&quot;);"></path></g><g class="note"><path d="M476.2109375,348.5C557.4,339.6 581.7,357.4 699.5,348.5C698.2,373.2 700.8,373.8 699.5,381.0C571.0,372.1 567.1,389.9 476.2,381.0C477.5,358.7 474.9,357.3 476.2,348.5" stroke="#000000" fill="#ffffff" style="stroke-width: 2;"></path><text x="481.2109375" y="367.5" style="font-size: 16px; font-family: danielbd;"><tspan x="481.2109375">Handle Authentication</tspan></text></g><g class="signal"><text x="552.9375" y="408.75" style="font-size: 16px; font-family: danielbd;"><tspan x="552.9375">rest call</tspan></text><path d="M486.2,423.5C640.7,415.4 656.9,431.6 689.5,423.5" stroke="#000000" fill="none" style="stroke-width: 2; stroke-dasharray: 6, 2; marker-end: url(&quot;#markerArrowBlock&quot;);"></path></g><g class="signal"><text x="539.7265625" y="451.25" style="font-size: 16px; font-family: danielbd;"><tspan x="539.7265625">list of files</tspan></text><path d="M689.5,466.0C518.7,457.9 656.9,474.1 486.2,466.0" stroke="#000000" fill="none" style="stroke-width: 2; stroke-dasharray: 6, 2; marker-end: url(&quot;#markerArrowBlock&quot;);"></path></g><g class="note"><path d="M476.2109375,486C602.1,477.1 645.9,494.9 699.5,486.0C701.5,499.9 697.4,520.3 699.5,537.7C645.9,546.6 663.7,528.8 476.2,537.7C478.3,498.9 474.1,514.9 476.2,486.0" stroke="#000000" fill="#ffffff" style="stroke-width: 2;"></path><text x="481.4921875" y="505" style="font-size: 16px; font-family: danielbd;"><tspan x="481.2109375">Apply handelbar</tspan><tspan dy="1.2em" x="481.2109375">transformation template</tspan></text></g><g class="signal"><text x="341.38671875" y="565.4375" style="font-size: 16px; font-family: danielbd;"><tspan x="341.38671875">artifact items</tspan></text><path d="M486.2,580.2C413.8,586.9 427.2,573.4 317.3,580.2" stroke="#000000" fill="none" style="stroke-width: 2; marker-end: url(&quot;#markerArrowBlock&quot;);"></path></g><g class="signal"><text x="121.5625" y="607.9375" style="font-size: 16px; font-family: danielbd;"><tspan x="121.5625">artifact items</tspan></text><path d="M317.3,622.7C207.3,633.5 89.9,611.9 46.6,622.7" stroke="#000000" fill="none" style="stroke-width: 2; marker-end: url(&quot;#markerArrowBlock&quot;);"></path></g><g class="note"><path d="M36.5625,642.6875C192.1,654.3 132.2,631.1 327.3,642.7C328.6,650.5 325.9,659.6 327.3,675.2C83.1,663.6 185.0,686.8 36.6,675.2C35.3,658.3 37.9,652.4 36.6,642.7" stroke="#000000" fill="#ffffff" style="stroke-width: 2;"></path><text x="41.5625" y="661.6875" style="font-size: 16px; font-family: danielbd;"><tspan x="41.5625">Iterate over items</tspan></text></g><g class="signal"><text x="372.84765625" y="702.9375" style="font-size: 16px; font-family: danielbd;"><tspan x="368.78515625">getItem</tspan></text><path d="M317.3,717.7C407.6,724.4 407.4,710.9 486.2,717.7" stroke="#000000" fill="none" style="stroke-width: 2; stroke-dasharray: 6, 2; marker-end: url(&quot;#markerArrowBlock&quot;);"></path></g><g class="signal"><text x="559.9609375" y="745.4375" style="font-size: 16px; font-family: danielbd;"><tspan x="555.8984375">get file</tspan></text><path d="M486.2,760.2C649.6,768.3 518.7,752.1 689.5,760.2" stroke="#000000" fill="none" style="stroke-width: 2; stroke-dasharray: 6, 2; marker-end: url(&quot;#markerArrowBlock&quot;);"></path></g><g class="signal"><text x="540.2890625" y="787.9375" style="font-size: 16px; font-family: danielbd;"><tspan x="540.2890625">file stream</tspan></text><path d="M689.5,802.7C640.7,794.6 649.4,810.8 486.2,802.7" stroke="#000000" fill="none" style="stroke-width: 2; stroke-dasharray: 6, 2; marker-end: url(&quot;#markerArrowBlock&quot;);"></path></g><g class="signal"><text x="354.18359375" y="830.4375" style="font-size: 16px; font-family: danielbd;"><tspan x="354.18359375">file stream</tspan></text><path d="M486.2,845.2C457.4,838.4 445.7,851.9 317.3,845.2" stroke="#000000" fill="none" style="stroke-width: 2; stroke-dasharray: 6, 2; marker-end: url(&quot;#markerArrowBlock&quot;);"></path></g><g class="signal"><text x="73.5859375" y="872.9375" style="font-size: 16px; font-family: danielbd;"><tspan x="73.5859375">file stream write to disk</tspan></text><path d="M317.3,887.7C273.9,876.9 215.3,898.5 46.6,887.7" stroke="#000000" fill="none" style="stroke-width: 2; marker-end: url(&quot;#markerArrowBlock&quot;);"></path></g></svg>